<svg xmlns="http://www.w3.org/2000/svg" version="1.1" viewBox="0.0 0.0 100.0 100.0">
  <g fill-rule="evenodd">
    <path d="m20.832 8.332c-6.9023 0-12.5 5.5977-12.5 12.5v12.5c0 6.9062 5.5977 12.5 12.5 12.5h12.5c6.9062 0 12.5-5.5938 12.5-12.5v-12.5c0-6.9023-5.5938-12.5-12.5-12.5zm-4.1641 12.5c0-2.3008 1.8633-4.1641 4.1641-4.1641h12.5c2.3008 0 4.168 1.8633 4.168 4.1641v12.5c0 2.3008-1.8672 4.168-4.168 4.168h-12.5c-2.3008 0-4.1641-1.8672-4.1641-4.168z"/>
    <path d="m66.668 8.332c-6.9062 0-12.5 5.5977-12.5 12.5v12.5c0 6.9062 5.5938 12.5 12.5 12.5h12.5c6.9023 0 12.5-5.5938 12.5-12.5v-12.5c0-6.9023-5.5977-12.5-12.5-12.5zm-4.168 12.5c0-2.3008 1.8672-4.1641 4.168-4.1641h12.5c2.3008 0 4.1641 1.8633 4.1641 4.1641v12.5c0 2.3008-1.8633 4.168-4.1641 4.168h-12.5c-2.3008 0-4.168-1.8672-4.168-4.168z"/>
    <path d="m8.332 66.668c0-6.9062 5.5977-12.5 12.5-12.5h12.5c6.9062 0 12.5 5.5938 12.5 12.5v12.5c0 6.9023-5.5938 12.5-12.5 12.5h-12.5c-6.9023 0-12.5-5.5977-12.5-12.5zm12.5-4.168c-2.3008 0-4.1641 1.8672-4.1641 4.168v12.5c0 2.3008 1.8633 4.1641 4.1641 4.1641h12.5c2.3008 0 4.168-1.8633 4.168-4.1641v-12.5c0-2.3008-1.8672-4.168-4.168-4.168z"/>
    <path d="m66.668 54.168c-6.9062 0-12.5 5.5938-12.5 12.5v12.5c0 6.9023 5.5938 12.5 12.5 12.5h12.5c6.9023 0 12.5-5.5977 12.5-12.5v-12.5c0-6.9062-5.5977-12.5-12.5-12.5zm-4.168 12.5c0-2.3008 1.8672-4.168 4.168-4.168h12.5c2.3008 0 4.1641 1.8672 4.1641 4.168v12.5c0 2.3008-1.8633 4.1641-4.1641 4.1641h-12.5c-2.3008 0-4.168-1.8633-4.168-4.1641z"/>
  </g>
</svg>