<svg xmlns="http://www.w3.org/2000/svg" version="1.1" viewBox="-5.0 -10.0 110.0 135.0">
  <path d="m44.113 24.023-0.55859 0.046874h-0.007813c-1.0547 0.019532-1.9062 0.88281-1.9062 1.9453 0 1.0742 0.87109 1.9453 1.9453 1.9453 0.054687 0 0.16406-0.007813 0.16406-0.007813 0.49609-0.046875 0.99219-0.0625 1.4844-0.0625 4.1992 0 8.3945 1.6016 11.598 4.8047 1.9141 1.9102 3.2578 4.1836 4.0273 6.5938 0.25391 0.77734 0.98828 1.3359 1.8477 1.3359 1.0742 0 1.9453-0.87109 1.9453-1.9414v-0.003906c0-0.21875-0.035156-0.42578-0.10156-0.62109-0.95703-2.9727-2.6133-5.7617-4.9688-8.1133-3.9609-3.9648-9.1523-5.9453-14.344-5.9453zm19.469 18.543v0.003906c-1.0742-0.003906-1.9453 0.86719-1.9453 1.9414s0.87109 1.9453 1.9453 1.9453 1.9414-0.87109 1.9414-1.9453-0.86719-1.9453-1.9414-1.9453v0.003906zm-18.348-21.941c6.0586 0 12.117 2.3086 16.738 6.9297 9.2422 9.2461 9.2422 24.23 0 33.473-4.6211 4.6211-10.68 6.9336-16.738 6.9336-6.0547 0-12.113-2.3125-16.734-6.9336-9.2461-9.2422-9.2461-24.23 0-33.473 4.6211-4.6211 10.676-6.9297 16.734-6.9297zm21.988 40.289h0.003906c0.75781 0.17969 1.4805 0.5625 2.0742 1.1523l9.7461 9.7461c1.6758 1.6875 1.6914 4.4062 0.042969 6.1133l-0.21484 0.21484c-0.84766 0.81641-1.9414 1.2266-3.0352 1.2266-1.1172 0-2.2305-0.42188-3.082-1.2695-0.75781-0.75391-7.2617-7.2617-9.7422-9.7422-0.59375-0.59375-0.97656-1.3164-1.1562-2.0781h0.003906c1-0.75781 1.9492-1.5898 2.8594-2.5 0.90625-0.91016 1.7422-1.8672 2.4961-2.8633zm-21.988-44.18c-7.0508 0-14.105 2.6914-19.484 8.0703-10.762 10.762-10.762 28.211 0 38.973 5.3789 5.3828 12.434 8.0703 19.484 8.0703 4.5703 0 9.1406-1.1289 13.254-3.3867l0.003907 0.003906c0.40625 0.96094 1 1.8672 1.7852 2.6523l9.7188 9.7188c1.6133 1.6133 3.7266 2.418 5.8438 2.418 2.0977 0 4.1953-0.79297 5.8047-2.3789l0.19922-0.19531c3.168-3.2344 3.1445-8.4219-0.0625-11.629 0-0.003906-9.7109-9.7148-9.7188-9.7227-0.78516-0.78516-1.6953-1.375-2.6562-1.7812h-0.003906c5.7461-10.465 4.1875-23.875-4.6797-32.742-5.3828-5.3789-12.434-8.0703-19.488-8.0703z"/>
</svg>