<svg xmlns="http://www.w3.org/2000/svg"
  xmlns:xlink="http://www.w3.org/1999/xlink" version="1.1" x="0px" y="0px" viewBox="0 0 48 48" style="enable-background:new 0 0 48 48;" xml:space="preserve">
  <g>
    <path fill="white" d="M24,20.5c-1.67,0-3.33,0.63-4.6,1.9c-2.53,2.53-2.53,6.66,0,9.19c2.54,2.53,6.66,2.53,9.19,0c2.53-2.54,2.53-6.66,0-9.19   C27.33,21.14,25.66,20.5,24,20.5z M27.18,29.47c0.2,0.2,0.2,0.51,0,0.71c-0.1,0.1-0.23,0.15-0.35,0.15s-0.26-0.05-0.35-0.15   L24,27.71l-2.47,2.47c-0.1,0.1-0.23,0.15-0.35,0.15s-0.26-0.05-0.35-0.15c-0.2-0.2-0.2-0.51,0-0.71L23.29,27l-2.47-2.47   c-0.2-0.2-0.2-0.51,0-0.71s0.51-0.2,0.71,0L24,26.29l2.47-2.47c0.2-0.2,0.51-0.2,0.71,0s0.2,0.51,0,0.71L24.71,27L27.18,29.47z"/>
    <path d="M36,21.5c-0.35,0-0.68,0.02-0.97,0.06c-0.01,0-0.01,0-0.02,0c-0.01,0-0.01,0-0.01,0c-0.01,0-0.03,0-0.04,0   c-0.02,0-0.04-0.01-0.06-0.01c-0.03,0-0.06-0.01-0.09-0.02c-0.03-0.01-0.06-0.03-0.09-0.04c-0.03-0.01-0.05-0.03-0.07-0.05   c-0.03-0.02-0.05-0.05-0.07-0.08c-0.02-0.02-0.03-0.04-0.05-0.06c-0.02-0.03-0.03-0.07-0.04-0.1c-0.01-0.02-0.02-0.04-0.02-0.07   c0-0.01,0-0.01,0-0.02c0,0,0-0.01,0-0.01C34.01,15.72,29.42,11.5,24,11.5s-10.01,4.22-10.46,9.61c0,0,0,0.01,0,0.01   c0,0.01,0,0.01,0,0.02c-0.01,0.04-0.02,0.07-0.04,0.1c-0.01,0.02-0.01,0.05-0.03,0.07c-0.02,0.04-0.05,0.07-0.08,0.1   c-0.02,0.02-0.03,0.04-0.05,0.05c-0.03,0.02-0.06,0.03-0.08,0.05c-0.03,0.02-0.06,0.03-0.09,0.04c-0.02,0.01-0.05,0-0.08,0.01   c-0.03,0-0.06,0.01-0.1,0.01c-0.01,0-0.01,0-0.01,0c-0.01,0-0.01,0-0.02,0c-0.29-0.04-0.62-0.06-0.97-0.06   c-4.14,0-7.5,3.36-7.5,7.5s3.36,7.5,7.5,7.5h24c4.14,0,7.5-3.36,7.5-7.5S40.14,21.5,36,21.5z M29.3,32.3   c-1.46,1.46-3.38,2.19-5.3,2.19s-3.84-0.73-5.3-2.19c-2.92-2.92-2.92-7.68,0-10.61s7.68-2.92,10.61,0S32.23,29.38,29.3,32.3z"/>
  </g>
</svg>